<svg viewBox="0 0 1385 400" xmlns="http://www.w3.org/2000/svg"><g><g><g><g><g><line x1="48.875" y1="377.828125" x2="43.875" y2="377.828125" style="visibility: inherit;" fill="rgb(0, 0, 0)" stroke="rgb(204, 204, 204)" stroke-width="1px"></line><line x1="48.875" y1="348.7644230769231" x2="43.875" y2="348.7644230769231" style="visibility: inherit;" fill="rgb(0, 0, 0)" stroke="rgb(204, 204, 204)" stroke-width="1px"></line><line x1="48.875" y1="319.70072115384613" x2="43.875" y2="319.70072115384613" style="visibility: inherit;" fill="rgb(0, 0, 0)" stroke="rgb(204, 204, 204)" stroke-width="1px"></line><line x1="48.875" y1="290.6370192307692" x2="43.875" y2="290.6370192307692" style="visibility: inherit;" fill="rgb(0, 0, 0)" stroke="rgb(204, 204, 204)" stroke-width="1px"></line><line x1="48.875" y1="261.5733173076923" x2="43.875" y2="261.5733173076923" style="visibility: inherit;" fill="rgb(0, 0, 0)" stroke="rgb(204, 204, 204)" stroke-width="1px"></line><line x1="48.875" y1="232.5096153846154" x2="43.875" y2="232.5096153846154" style="visibility: inherit;" fill="rgb(0, 0, 0)" stroke="rgb(204, 204, 204)" stroke-width="1px"></line><line x1="48.875" y1="203.44591346153848" x2="43.875" y2="203.44591346153848" style="visibility: inherit;" fill="rgb(0, 0, 0)" stroke="rgb(204, 204, 204)" stroke-width="1px"></line><line x1="48.875" y1="174.38221153846155" x2="43.875" y2="174.38221153846155" style="visibility: inherit;" fill="rgb(0, 0, 0)" stroke="rgb(204, 204, 204)" stroke-width="1px"></line><line x1="48.875" y1="145.31850961538464" x2="43.875" y2="145.31850961538464" style="visibility: inherit;" fill="rgb(0, 0, 0)" stroke="rgb(204, 204, 204)" stroke-width="1px"></line><line x1="48.875" y1="116.25480769230768" x2="43.875" y2="116.25480769230768" style="visibility: inherit;" fill="rgb(0, 0, 0)" stroke="rgb(204, 204, 204)" stroke-width="1px"></line><line x1="48.875" y1="87.19110576923077" x2="43.875" y2="87.19110576923077" style="visibility: inherit;" fill="rgb(0, 0, 0)" stroke="rgb(204, 204, 204)" stroke-width="1px"></line><line x1="48.875" y1="58.12740384615387" x2="43.875" y2="58.12740384615387" style="visibility: inherit;" fill="rgb(0, 0, 0)" stroke="rgb(204, 204, 204)" stroke-width="1px"></line><line x1="48.875" y1="29.063701923076906" x2="43.875" y2="29.063701923076906" style="visibility: inherit;" fill="rgb(0, 0, 0)" stroke="rgb(204, 204, 204)" stroke-width="1px"></line><line x1="48.875" y1="0" x2="43.875" y2="0" style="visibility: inherit;" fill="rgb(0, 0, 0)" stroke="rgb(204, 204, 204)" stroke-width="1px"></line></g><g transform="translate(38.875, 0)"><text x="0" y="377.828125" dx="0em" dy="0.3em" style="text-anchor: end; visibility: hidden; font-family: &quot;Helvetica Neue&quot;, sans-serif; font-size: 12px; font-weight: 200;" fill="rgb(50, 49, 63)" stroke="none" stroke-width="1px">-0.1</text><text x="0" y="348.7644230769231" dx="0em" dy="0.3em" style="text-anchor: end; visibility: inherit; font-family: &quot;Helvetica Neue&quot;, sans-serif; font-size: 12px; font-weight: 200;" fill="rgb(50, 49, 63)" stroke="none" stroke-width="1px">0</text><text x="0" y="319.70072115384613" dx="0em" dy="0.3em" style="text-anchor: end; visibility: inherit; font-family: &quot;Helvetica Neue&quot;, sans-serif; font-size: 12px; font-weight: 200;" fill="rgb(50, 49, 63)" stroke="none" stroke-width="1px">0.1</text><text x="0" y="290.6370192307692" dx="0em" dy="0.3em" style="text-anchor: end; visibility: inherit; font-family: &quot;Helvetica Neue&quot;, sans-serif; font-size: 12px; font-weight: 200;" fill="rgb(50, 49, 63)" stroke="none" stroke-width="1px">0.2</text><text x="0" y="261.5733173076923" dx="0em" dy="0.3em" style="text-anchor: end; visibility: inherit; font-family: &quot;Helvetica Neue&quot;, sans-serif; font-size: 12px; font-weight: 200;" fill="rgb(50, 49, 63)" stroke="none" stroke-width="1px">0.3</text><text x="0" y="232.5096153846154" dx="0em" dy="0.3em" style="text-anchor: end; visibility: inherit; font-family: &quot;Helvetica Neue&quot;, sans-serif; font-size: 12px; font-weight: 200;" fill="rgb(50, 49, 63)" stroke="none" stroke-width="1px">0.4</text><text x="0" y="203.44591346153848" dx="0em" dy="0.3em" style="text-anchor: end; visibility: inherit; font-family: &quot;Helvetica Neue&quot;, sans-serif; font-size: 12px; font-weight: 200;" fill="rgb(50, 49, 63)" stroke="none" stroke-width="1px">0.5</text><text x="0" y="174.38221153846155" dx="0em" dy="0.3em" style="text-anchor: end; visibility: inherit; font-family: &quot;Helvetica Neue&quot;, sans-serif; font-size: 12px; font-weight: 200;" fill="rgb(50, 49, 63)" stroke="none" stroke-width="1px">0.6</text><text x="0" y="145.31850961538464" dx="0em" dy="0.3em" style="text-anchor: end; visibility: inherit; font-family: &quot;Helvetica Neue&quot;, sans-serif; font-size: 12px; font-weight: 200;" fill="rgb(50, 49, 63)" stroke="none" stroke-width="1px">0.7</text><text x="0" y="116.25480769230768" dx="0em" dy="0.3em" style="text-anchor: end; visibility: inherit; font-family: &quot;Helvetica Neue&quot;, sans-serif; font-size: 12px; font-weight: 200;" fill="rgb(50, 49, 63)" stroke="none" stroke-width="1px">0.8</text><text x="0" y="87.19110576923077" dx="0em" dy="0.3em" style="text-anchor: end; visibility: inherit; font-family: &quot;Helvetica Neue&quot;, sans-serif; font-size: 12px; font-weight: 200;" fill="rgb(50, 49, 63)" stroke="none" stroke-width="1px">0.9</text><text x="0" y="58.12740384615387" dx="0em" dy="0.3em" style="text-anchor: end; visibility: inherit; font-family: &quot;Helvetica Neue&quot;, sans-serif; font-size: 12px; font-weight: 200;" fill="rgb(50, 49, 63)" stroke="none" stroke-width="1px">1</text><text x="0" y="29.063701923076906" dx="0em" dy="0.3em" style="text-anchor: end; visibility: inherit; font-family: &quot;Helvetica Neue&quot;, sans-serif; font-size: 12px; font-weight: 200;" fill="rgb(50, 49, 63)" stroke="none" stroke-width="1px">1.1</text><text x="0" y="0" dx="0em" dy="0.3em" style="text-anchor: end; visibility: hidden; font-family: &quot;Helvetica Neue&quot;, sans-serif; font-size: 12px; font-weight: 200;" fill="rgb(50, 49, 63)" stroke="none" stroke-width="1px">1.2</text></g><line x1="48.875" y1="0" x2="48.875" y2="377.828125" fill="rgb(0, 0, 0)" stroke="rgb(204, 204, 204)" stroke-width="1px"></line></g></g><g transform="translate(48, 0)" clip-path="url(#clip_0)"><clipPath id="clip_0"><rect width="1336" height="377"></rect></clipPath><g><g><g><line x1="0" y1="0" x2="0" y2="377.828125" fill="rgb(0, 0, 0)" stroke="rgb(60, 60, 60)" stroke-width="1px" opacity="0.25"></line><line x1="111.34375" y1="0" x2="111.34375" y2="377.828125" fill="rgb(0, 0, 0)" stroke="rgb(60, 60, 60)" stroke-width="1px" opacity="0.25"></line><line x1="222.6875" y1="0" x2="222.6875" y2="377.828125" fill="rgb(0, 0, 0)" stroke="rgb(60, 60, 60)" stroke-width="1px" opacity="0.25"></line><line x1="334.03125" y1="0" x2="334.03125" y2="377.828125" fill="rgb(0, 0, 0)" stroke="rgb(60, 60, 60)" stroke-width="1px" opacity="0.25"></line><line x1="445.375" y1="0" x2="445.375" y2="377.828125" fill="rgb(0, 0, 0)" stroke="rgb(60, 60, 60)" stroke-width="1px" opacity="0.25"></line><line x1="556.71875" y1="0" x2="556.71875" y2="377.828125" fill="rgb(0, 0, 0)" stroke="rgb(60, 60, 60)" stroke-width="1px" opacity="0.25"></line><line x1="668.0625" y1="0" x2="668.0625" y2="377.828125" fill="rgb(0, 0, 0)" stroke="rgb(60, 60, 60)" stroke-width="1px" opacity="0.25"></line><line x1="779.40625" y1="0" x2="779.40625" y2="377.828125" fill="rgb(0, 0, 0)" stroke="rgb(60, 60, 60)" stroke-width="1px" opacity="0.25"></line><line x1="890.75" y1="0" x2="890.75" y2="377.828125" fill="rgb(0, 0, 0)" stroke="rgb(60, 60, 60)" stroke-width="1px" opacity="0.25"></line><line x1="1002.09375" y1="0" x2="1002.09375" y2="377.828125" fill="rgb(0, 0, 0)" stroke="rgb(60, 60, 60)" stroke-width="1px" opacity="0.25"></line><line x1="1113.4375" y1="0" x2="1113.4375" y2="377.828125" fill="rgb(0, 0, 0)" stroke="rgb(60, 60, 60)" stroke-width="1px" opacity="0.25"></line><line x1="1224.78125" y1="0" x2="1224.78125" y2="377.828125" fill="rgb(0, 0, 0)" stroke="rgb(60, 60, 60)" stroke-width="1px" opacity="0.25"></line><line x1="1336.125" y1="0" x2="1336.125" y2="377.828125" fill="rgb(0, 0, 0)" stroke="rgb(60, 60, 60)" stroke-width="1px" opacity="0.25"></line></g><g><line x1="0" y1="377.828125" x2="1336.125" y2="377.828125" fill="rgb(0, 0, 0)" stroke="rgb(60, 60, 60)" stroke-width="1px" opacity="0.25"></line><line x1="0" y1="348.7644230769231" x2="1336.125" y2="348.7644230769231" fill="rgb(0, 0, 0)" stroke="rgb(60, 60, 60)" stroke-width="1px" opacity="0.25"></line><line x1="0" y1="319.70072115384613" x2="1336.125" y2="319.70072115384613" fill="rgb(0, 0, 0)" stroke="rgb(60, 60, 60)" stroke-width="1px" opacity="0.25"></line><line x1="0" y1="290.6370192307692" x2="1336.125" y2="290.6370192307692" fill="rgb(0, 0, 0)" stroke="rgb(60, 60, 60)" stroke-width="1px" opacity="0.25"></line><line x1="0" y1="261.5733173076923" x2="1336.125" y2="261.5733173076923" fill="rgb(0, 0, 0)" stroke="rgb(60, 60, 60)" stroke-width="1px" opacity="0.25"></line><line x1="0" y1="232.5096153846154" x2="1336.125" y2="232.5096153846154" fill="rgb(0, 0, 0)" stroke="rgb(60, 60, 60)" stroke-width="1px" opacity="0.25"></line><line x1="0" y1="203.44591346153848" x2="1336.125" y2="203.44591346153848" fill="rgb(0, 0, 0)" stroke="rgb(60, 60, 60)" stroke-width="1px" opacity="0.25"></line><line x1="0" y1="174.38221153846155" x2="1336.125" y2="174.38221153846155" fill="rgb(0, 0, 0)" stroke="rgb(60, 60, 60)" stroke-width="1px" opacity="0.25"></line><line x1="0" y1="145.31850961538464" x2="1336.125" y2="145.31850961538464" fill="rgb(0, 0, 0)" stroke="rgb(60, 60, 60)" stroke-width="1px" opacity="0.25"></line><line x1="0" y1="116.25480769230768" x2="1336.125" y2="116.25480769230768" fill="rgb(0, 0, 0)" stroke="rgb(60, 60, 60)" stroke-width="1px" opacity="0.25"></line><line x1="0" y1="87.19110576923077" x2="1336.125" y2="87.19110576923077" fill="rgb(0, 0, 0)" stroke="rgb(60, 60, 60)" stroke-width="1px" opacity="0.25"></line><line x1="0" y1="58.12740384615387" x2="1336.125" y2="58.12740384615387" fill="rgb(0, 0, 0)" stroke="rgb(60, 60, 60)" stroke-width="1px" opacity="0.25"></line><line x1="0" y1="29.063701923076906" x2="1336.125" y2="29.063701923076906" fill="rgb(0, 0, 0)" stroke="rgb(60, 60, 60)" stroke-width="1px" opacity="0.25"></line><line x1="0" y1="0" x2="1336.125" y2="0" fill="rgb(0, 0, 0)" stroke="rgb(60, 60, 60)" stroke-width="1px" opacity="0.25"></line></g></g></g><g><g><line x1="0" y1="348.7644230769231" x2="1336.125" y2="348.7644230769231" fill="rgb(0, 0, 0)" stroke="rgb(153, 153, 153)" stroke-width="1.5px"></line></g></g><g><g><line x1="111.34375" y1="0" x2="111.34375" y2="377.828125" fill="rgb(0, 0, 0)" stroke="rgb(153, 153, 153)" stroke-width="1.5px"></line></g></g><g><g><g><g><g><path stroke="rgb(204, 51, 17)" stroke-width="2px" d="M111.34375,300.3249184281852L122.47812499999999,297.57267384587055L133.6125,300.1002465058608L144.74687500000002,291.60273264799866L155.88125,272.46632309325116L167.015625,267.9882627497955L178.15,263.62682786311285L189.28437499999998,254.37121297555927L200.41875,238.24213973864522L211.553125,218.4794819630104L222.6875,212.00219646122497L233.82187499999998,213.4267333336764L244.95624999999998,197.9648710586857L256.09062500000005,197.9554871657804L267.225,185.1734380949125L278.359375,175.74612423073296L289.49375000000003,198.27919061472755L300.628125,210.03497546636547L311.7625,194.62799566392528L322.896875,176.13653091336994L334.03125,183.09720139840877L345.16562500000003,173.1818351536827L356.3,163.26943240323325L367.43437500000005,152.03770448361823L378.56874999999997,154.5462746444856L389.703125,153.84960799091908L400.8375,147.70693286973312L411.971875,140.49846005660945L423.10625,140.13660896287723L434.240625,138.15806320220972L445.375,131.24626523593986L456.50937500000003,128.8606289128005L467.64374999999995,124.34672926329543L478.778125,128.24377723143306L489.91249999999997,127.4994949872538L501.046875,128.37400176282335L512.1812500000001,121.85295964806306L523.315625,122.78428705330987L534.45,116.73769604889037L545.584375,116.19225235959294L556.71875,118.50714527845139L567.853125,118.57499799835364L578.9875000000001,123.45966226196106L590.1218749999999,132.11513085067776L601.25625,153.60169776652995L612.390625,152.84250435239696L623.525,143.5798073725426L634.659375,134.05895395464935L645.79375,128.78680060414362L656.9281249999999,126.50423292339408L668.0625,118.96966358437567L679.196875,120.17359201146792L690.3312500000001,118.69414863795339L701.465625,112.9625369128795L712.6,113.04643947854072L723.734375,110.01427011732414L734.8687500000001,104.67209197056815L746.0031250000001,103.66857858295282L757.1374999999999,107.47006448058494L768.2718749999999,112.39310821968877L779.40625,118.86981099317711L790.540625,121.87511525709502L801.675,120.59577998550708L812.8093749999999,129.0757253830437L823.94375,123.1547112607266L835.078125,114.31779145696055L846.2125,111.65779870455214L857.3468750000001,110.50216175319451L868.48125,106.28590305235389L879.615625,110.36153526248762L890.75,103.99973365749258L901.8843750000001,105.46696402487129L913.0187500000001,105.90694354521105L924.1531249999999,107.05164865758991L935.2874999999999,107.2981130249297L946.421875,105.24419121556991L957.55625,104.45219683004149L968.690625,111.90347065895122L979.8249999999999,110.64956492583394L990.959375,106.37434495593754L1002.09375,109.53388300446295L1013.228125,105.70493580311495L1024.3625000000002,101.64613268195643L1035.496875,101.41264430969846L1046.63125,98.63039908581908L1057.765625,108.85075071250532L1068.9,108.81793295796638L1080.034375,105.27536577521698L1091.16875,106.23234329550604L1102.303125,106.8065298076794L1113.4375,106.27032431480853L1124.571875,101.10464838879767L1135.70625,101.08775373380325L1146.8406249999998,97.55474734010704L1157.9750000000001,96.75601960415162L1169.109375,98.03821776292824L1180.2437499999999,95.72502575758205L1191.3781250000002,99.18106318466266L1202.5125,100.37396131140969L1213.646875,97.12647188667091" style="fill: none;" fill="none"></path></g><g><path stroke="rgb(238, 51, 119)" stroke-width="2px" d="M111.34375,300.88645372572L122.47812499999999,272.27683176021003L133.6125,253.2824808162216L144.74687500000002,236.75345666943647L155.88125,222.7081236270238L167.015625,207.88219388003276L178.15,194.60501267059917L189.28437499999998,185.3862669095835L200.41875,178.72679556636874L211.553125,173.449040421002L222.6875,169.78422180465287L233.82187499999998,166.12138661682275L244.95624999999998,164.99413601277496L256.09062500000005,162.94971669026592L267.225,161.24762120702115L278.359375,160.15592765184536L289.49375000000003,159.5011086585093L300.628125,159.42244034155803L311.7625,158.63549378200736L322.896875,158.13295647064635L334.03125,157.36532061105294L345.16562500000003,157.22901197508233L356.3,156.25552051695863L367.43437500000005,156.05648813211306L378.56874999999997,155.84587217923368L389.703125,154.86833771621366L400.8375,154.82899293395838L411.971875,153.85289414123065L423.10625,152.8315190373566L434.240625,150.60756308081312L445.375,148.1180362914857L456.50937500000003,144.18229391346054L467.64374999999995,139.53081010414274L478.778125,135.3010452684487L489.91249999999997,131.89176125629496L501.046875,129.79552365050478L512.1812500000001,127.09890644093053L523.315625,125.84572359232581L534.45,124.16158387056987L545.584375,122.95857563174164L556.71875,121.48693440793062L567.853125,120.03650712573665L578.9875000000001,119.55130650214193L590.1218749999999,119.68576457477752L601.25625,118.16543931465111L612.390625,117.79028775167416L623.525,117.29161314439074L634.659375,116.64788919497926L645.79375,116.86962700453108L656.9281249999999,116.48589437735103L668.0625,115.85033770514661L679.196875,115.62099847895337L690.3312500000001,115.63538279103852L701.465625,115.2083042562939L712.6,115.04324707239715L723.734375,114.25518132129423L734.8687500000001,114.14712240641092L746.0031250000001,113.51484450909123L757.1374999999999,113.10507881527406L768.2718749999999,112.76802253270768L779.40625,112.5860570432269L790.540625,112.68967043751621L801.675,113.11661900986797L812.8093749999999,112.71414873861323L823.94375,112.34094007879247L835.078125,112.1879434691171L846.2125,111.96441900624404L857.3468750000001,112.33694896605908L868.48125,111.73970207478902L879.615625,111.48268841099599L890.75,111.14608648016781L901.8843750000001,111.17717936038127L913.0187500000001,110.92224448968079L924.1531249999999,111.00234453529737L935.2874999999999,110.68561709756261L946.421875,110.48544995955547L957.55625,110.35521900138485L968.690625,110.33787833733328L979.8249999999999,110.12481192629087L990.959375,110.08816894594162L1002.09375,110.65389398618078L1013.228125,110.53734467894344L1024.3625000000002,110.2748906866824L1035.496875,110.12754896669202L1046.63125,110.06954289012322L1057.765625,110.00434028875657L1068.9,110.11721350506349L1080.034375,109.92148444071199L1091.16875,110.006702085386L1102.303125,109.85517758890546L1113.4375,109.86559043265959L1124.571875,109.97316568055453L1135.70625,109.86545470143193L1146.8406249999998,109.8818873755418L1157.9750000000001,110.12480794804452L1169.109375,109.6625881123648L1180.2437499999999,109.15219524292024L1191.3781250000002,109.13981147081455L1202.5125,108.91959544889994L1213.646875,108.7874658357511" style="fill: none;" fill="none"></path></g><g><path stroke="rgb(187, 187, 187)" stroke-width="2px" d="M111.34375,202.3450167113199L122.47812499999999,208.53756634483582L133.6125,177.85565697535833L144.74687500000002,147.11799284449293L155.88125,118.54766845152261L167.015625,104.28262864351785L178.15,92.99053726620531L189.28437499999998,92.24351159679333L200.41875,91.80340812885521L211.553125,86.22574394424953L222.6875,85.99455050285115L233.82187499999998,88.94560791126241L244.95624999999998,83.65716534292386L256.09062500000005,80.92922784961513L267.225,82.81836785433359L278.359375,77.34403181089772L289.49375000000003,73.61998549847675L300.628125,75.78999545465251L311.7625,72.24761255340019L322.896875,76.72794991007163L334.03125,73.69125879896245L345.16562500000003,72.30965126317352L356.3,70.59997402464126L367.43437500000005,69.5741763227391L378.56874999999997,68.95870081240383L389.703125,68.14905024548739L400.8375,70.30542262333103L411.971875,70.71852669652071L423.10625,72.28746556509782L434.240625,69.70595120742678L445.375,67.71668419957723L456.50937500000003,67.40384163400927L467.64374999999995,67.65650176104555L478.778125,67.36773218751478L489.91249999999997,68.95591220864816L501.046875,71.67025502237283L512.1812500000001,72.85850198987697L523.315625,69.16785621912078L534.45,71.35706270544944L545.584375,70.46879309074473L556.71875,69.05510699247407L567.853125,68.64726096386318L578.9875000000001,69.72362944746601L590.1218749999999,69.04837443693759L601.25625,69.96429753109504L612.390625,67.4313335573978L623.525,67.67299690302269L634.659375,68.25835361048922L645.79375,66.40776720516732L656.9281249999999,67.05885709168064L668.0625,66.56878669407962L679.196875,66.27474445552053L690.3312500000001,66.53867781247374L701.465625,65.37596172638177L712.6,65.99940817499049L723.734375,66.81384167356958L734.8687500000001,65.98141874312773L746.0031250000001,65.92232368495024L757.1374999999999,65.44650794995624L768.2718749999999,65.16101850895996L779.40625,65.43008354444959L790.540625,65.59152256574339L801.675,65.24802727843218L812.8093749999999,65.04193010604541L823.94375,64.47791310252603L835.078125,64.13950290041424L846.2125,63.93645677914736L857.3468750000001,64.25498780647456L868.48125,64.44610642287091L879.615625,64.12041889262127L890.75,63.92500637447148L901.8843750000001,64.68847626375651L913.0187500000001,65.14655819732747L924.1531249999999,65.42140735747006L935.2874999999999,65.58631685355567L946.421875,65.2449038511196L957.55625,64.59969734957042L968.690625,64.21257344864102L979.8249999999999,63.98029910808333L990.959375,64.28129320383619L1002.09375,64.46188966128784L1013.228125,64.57024753575888L1024.3625000000002,64.6352622604415L1035.496875,67.31643022510218L1046.63125,68.92513100389857L1057.765625,66.80783364123789L1068.9,66.85853132390372L1080.034375,66.44859123341587L1091.16875,66.64298587921058L1102.303125,67.64034699618873L1113.4375,67.79840496628827L1124.571875,67.452874118934L1135.70625,66.36483821034653L1146.8406249999998,65.71201666519414L1157.9750000000001,66.2010411382775L1169.109375,66.0540971220401L1180.2437499999999,66.40628941238509L1191.3781250000002,65.2965286863298L1202.5125,65.07103095078406L1213.646875,64.49537360936915" style="fill: none;" fill="none"></path></g><g><path stroke="rgb(0, 119, 187)" stroke-width="2px" d="M111.34375,322.3428750867024L122.47812499999999,322.3428750867024L133.6125,322.9045582069234L144.74687500000002,316.06937720253467L155.88125,300.16830401038555L167.015625,287.7624449903861L178.15,235.84894208185102L189.28437499999998,175.19084372317045L200.41875,139.00982785430517L211.553125,110.44738732555805L222.6875,93.8628195403221L233.82187499999998,85.71594802720205L244.95624999999998,87.45321550787031L256.09062500000005,78.79861964208965L267.225,74.49134333718587L278.359375,70.5868182318518L289.49375000000003,71.76828119033468L300.628125,68.9537966142554L311.7625,70.3479944942838L322.896875,67.66145351127409L334.03125,67.81107215751632L345.16562500000003,66.13937633026313L356.3,65.13637291603555L367.43437500000005,65.41529751034597L378.56874999999997,69.10553796676714L389.703125,66.91607408413364L400.8375,68.68491912971336L411.971875,67.54442321652971L423.10625,67.30048497919825L434.240625,65.39268690456583L445.375,68.65160284402839L456.50937500000003,67.08407532064905L467.64374999999995,66.14355888646412L478.778125,66.01960776740071L489.91249999999997,65.94523709823551L501.046875,65.01989728829574L512.1812500000001,65.34541081406553L523.315625,65.5407189282381L534.45,66.09826249734607L545.584375,66.43278863801584L556.71875,66.19314562169092L567.853125,67.37044284224356L578.9875000000001,66.31537944402766L590.1218749999999,67.88414183543824L601.25625,66.18324013998483L612.390625,65.60305782294091L623.525,63.93387233242595L634.659375,63.37271973825426L645.79375,63.91674558194603L656.9281249999999,63.8028023880654L668.0625,63.734436471737695L679.196875,64.13377562202993L690.3312500000001,64.37337911220447L701.465625,64.51714120630902L712.6,64.16303976268398L723.734375,63.950578896509L734.8687500000001,63.823102376804115L746.0031250000001,63.3062577648937L757.1374999999999,62.99615099774741L768.2718749999999,63.69080433763463L779.40625,63.66723764147946L790.540625,64.09345632387391L801.675,64.78954623339791L812.8093749999999,65.20720017911236L823.94375,66.33851687604243L835.078125,66.1365825646991L846.2125,66.89614630739442L857.3468750000001,66.03080152342284L868.48125,69.47482988315329L879.615625,71.54124689899152L890.75,69.25822057846858L901.8843750000001,68.76912911565614L913.0187500000001,68.03530860855466L924.1531249999999,66.27394020403153L935.2874999999999,65.65747786140503L946.421875,65.28760045582925L957.55625,64.62531531239625L968.690625,63.787585526249075L979.8249999999999,63.28494765456071L990.959375,62.983364931547726L1002.09375,62.36205659765244L1013.228125,61.98927159731534L1024.3625000000002,61.765600597113064L1035.496875,62.07175669707914L1046.63125,62.69580905714622L1057.765625,63.07024047318646L1068.9,63.29489932281058L1080.034375,62.98933593249768L1091.16875,62.8059978983099L1102.303125,62.69599507779719L1113.4375,62.62999338548963L1124.571875,62.15003367001759L1135.70625,62.30241654082181L1146.8406249999998,62.3938462633044L1157.9750000000001,62.889062796881376L1169.109375,63.18619271702755L1180.2437499999999,63.80482936920271L1191.3781250000002,63.73565266042027L1202.5125,63.69414663515096L1213.646875,63.669243019989324" style="fill: none;" fill="none"></path></g></g></g></g><g opacity="0.20000000298023224"><g><g><g><path stroke="rgb(204, 51, 17)" stroke-width="2px" d="M111.34375,300.3249184281852L122.47812499999999,295.9213270964817L133.6125,302.52671625945146L144.74687500000002,281.6096563511528L155.88125,247.48182677857292L167.015625,261.7934931930728L178.15,257.3899061921984L189.28437499999998,240.87643761560324L200.41875,214.45488962538255L211.553125,189.13423838538048L222.6875,202.3450167113199L233.82187499999998,215.55578637560114L244.95624999999998,174.82256330922246L256.09062500000005,197.9414297104455L267.225,166.01538930747373L278.359375,161.61180230659934L289.49375000000003,232.06925495219633L300.628125,227.66566795132195L311.7625,171.51987305856667L322.896875,148.40102398065994L334.03125,193.53782538625484L345.16562500000003,158.3091120559436L356.3,148.40102398065994L367.43437500000005,135.19024565472054L378.56874999999997,158.3091120559436L389.703125,152.80461098153432L400.8375,138.4929359053763L411.971875,129.6857619036276L423.10625,139.59383265559492L434.240625,135.19024565472054L445.375,120.87857057856257L456.50937500000003,125.28217490275321L467.64374999999995,117.57588032790676L478.778125,134.08934890450197L489.91249999999997,126.38307165297181L501.046875,129.6857619036276L512.1812500000001,112.07139657681381L523.315625,124.18127815253459L534.45,107.66780957593943L545.584375,115.37408682746957L556.71875,121.97948465209743L567.853125,118.67677707812533L578.9875000000001,130.78665865384616L590.1218749999999,145.09833373000416L601.25625,185.8315481347247L612.390625,151.70371423131573L623.525,129.6857619036276L634.659375,119.77767382834395L645.79375,120.87857057856257L656.9281249999999,123.08038140231602L668.0625,107.66780957593943L679.196875,121.97948465209743L690.3312500000001,116.47498357768819L701.465625,104.36511932528362L712.6,113.17229332703238L723.734375,105.46601607550224L734.8687500000001,96.65882475043719L746.0031250000001,102.16330850153014L757.1374999999999,113.17229332703238L768.2718749999999,119.77767382834395L779.40625,128.58486515340897L790.540625,126.38307165297181L801.675,118.67677707812533L812.8093749999999,141.7956434793484L823.94375,114.27319007725094L835.078125,101.06241175131157L846.2125,107.66780957593943L857.3468750000001,108.768706326158L868.48125,99.961515001093L879.615625,116.47498357768819L890.75,94.45703125L901.8843750000001,107.66780957593943L913.0187500000001,106.56691282572086L924.1531249999999,108.768706326158L935.2874999999999,107.66780957593943L946.421875,102.16330850153014L957.55625,103.26420525174876L968.690625,123.08038140231602L979.8249999999999,108.768706326158L990.959375,99.961515001093L1002.09375,114.27319007725094L1013.228125,99.961515001093L1024.3625000000002,95.55792800021862L1035.496875,101.06241175131157L1046.63125,94.45703125L1057.765625,124.18127815253459L1068.9,108.768706326158L1080.034375,99.961515001093L1091.16875,107.66780957593943L1102.303125,107.66780957593943L1113.4375,105.46601607550224L1124.571875,93.35613449978143L1135.70625,101.06241175131157L1146.8406249999998,92.25523774956281L1157.9750000000001,95.55792800021862L1169.109375,99.961515001093L1180.2437499999999,92.25523774956281L1191.3781250000002,104.36511932528362L1202.5125,102.16330850153014L1213.646875,92.25523774956281" style="fill: none;" fill="none"></path></g><g><path stroke="rgb(238, 51, 119)" stroke-width="2px" d="M111.34375,300.88645372572L122.47812499999999,255.11105858090406L133.6125,235.04790390999273L144.74687500000002,217.31532427281715L155.88125,204.3705368068499L167.015625,187.37259570523523L178.15,175.61843110620975L189.28437499999998,171.94524709006342L200.41875,168.90536887084065L211.553125,165.612189120828L222.6875,164.32023351524887L233.82187499999998,160.6470668224188L244.95624999999998,163.3069407755079L256.09062500000005,159.88709293678403L267.225,158.69647873150043L278.359375,158.51915726595772L289.49375000000003,158.51915726595772L300.628125,159.30445784000824L311.7625,157.45519382606906L322.896875,157.37919643750558L334.03125,156.2139089206377L345.16562500000003,157.02455350642023L356.3,154.79530254966366L367.43437500000005,155.7579419125731L378.56874999999997,155.5299497468827L389.703125,153.40204019042164L400.8375,154.7699758612479L411.971875,152.3887474506807L423.10625,151.2994573223763L434.240625,147.27163037514458L445.375,144.38374693304874L456.50937500000003,138.27868112950372L467.64374999999995,132.5535849454598L478.778125,128.95639831787693L489.91249999999997,126.77783538458439L501.046875,126.65116729587317L512.1812500000001,123.05398066829034L523.315625,123.96594933105203L534.45,121.63537429731628L545.584375,121.1540632775197L556.71875,119.27947257516479L567.853125,117.8608662041907L578.9875000000001,118.8235055671002L590.1218749999999,119.88745168367262L601.25625,115.88495142485664L612.390625,117.22756040726716L623.525,116.54360123351216L634.659375,115.68230327089822L645.79375,117.20223371885146L656.9281249999999,115.91029543658863L668.0625,114.89700269684766L679.196875,115.27698963966509L690.3312500000001,115.65695925916617L701.465625,114.56768645417804L712.6,114.79566129655217L723.734375,113.0730826946405L734.8687500000001,113.98503403408597L746.0031250000001,112.56642766311194L757.1374999999999,112.49043027454849L768.2718749999999,112.26243810885802L779.40625,112.31310880900577L790.540625,112.8450905289501L801.675,113.75704186839556L812.8093749999999,112.11044333173106L823.94375,111.78112708906144L835.078125,111.9584485546041L846.2125,111.62913231193448L857.3468750000001,112.89574390578156L868.48125,110.84383173788399L879.615625,111.09716791530644L890.75,110.64118358392557L901.8843750000001,111.22381868070136L913.0187500000001,110.53984218363007L924.1531249999999,111.12249460372215L935.2874999999999,110.2105259409604L946.421875,110.18519925254469L957.55625,110.15987256412899L968.690625,110.31186734125589L979.8249999999999,109.80521230972732L990.959375,110.03320447541773L1002.09375,111.50248154653951L1013.228125,110.36252071808741L1024.3625000000002,109.88120969829077L1035.496875,109.90653638670653L1046.63125,109.98253377526999L1057.765625,109.90653638670653L1068.9,110.2865233295239L1080.034375,109.6278908441846L1091.16875,110.13452855239694L1102.303125,109.6278908441846L1113.4375,109.88120969829077L1124.571875,110.13452855239694L1135.70625,109.70388823274811L1146.8406249999998,109.90653638670653L1157.9750000000001,110.48918880679861L1169.109375,108.96925835884537L1180.2437499999999,108.38660593875323L1191.3781250000002,109.12123581265604L1202.5125,108.589271416028L1213.646875,108.589271416028" style="fill: none;" fill="none"></path></g><g><path stroke="rgb(187, 187, 187)" stroke-width="2px" d="M111.34375,202.3450167113199L122.47812499999999,212.25309612494536L133.6125,148.40102398065994L144.74687500000002,110.97049982659519L155.88125,81.24625292406057L167.015625,84.54894317471638L178.15,76.84266592318619L189.28437499999998,91.15434099934424L200.41875,91.15434099934424L211.553125,77.94356267340481L222.6875,85.64985724825124L233.82187499999998,93.35613449978143L244.95624999999998,75.74176917296762L256.09062500000005,76.84266592318619L267.225,85.64985724825124L278.359375,69.13638867165605L289.49375000000003,68.03549192143743L300.628125,79.04445942362338L311.7625,66.93457784790257L322.896875,83.44804642449776L334.03125,69.13638867165605L345.16562500000003,70.23728542187467L356.3,68.03549192143743L367.43437500000005,68.03549192143743L378.56874999999997,68.03549192143743L389.703125,66.93457784790257L400.8375,73.53997567253043L411.971875,71.33818217209324L423.10625,74.64087242274906L434.240625,65.83368109768395L445.375,64.73278434746538L456.50937500000003,66.93457784790257L467.64374999999995,68.03549192143743L478.778125,66.93457784790257L489.91249999999997,71.33818217209324L501.046875,75.74176917296762L512.1812500000001,74.64087242274906L523.315625,63.631887597246816L534.45,74.64087242274906L545.584375,69.13638867165605L556.71875,66.93457784790257L567.853125,68.03549192143743L578.9875000000001,71.33818217209324L590.1218749999999,68.03549192143743L601.25625,71.33818217209324L612.390625,63.631887597246816L623.525,68.03549192143743L634.659375,69.13638867165605L645.79375,63.631887597246816L656.9281249999999,68.03549192143743L668.0625,65.83368109768395L679.196875,65.83368109768395L690.3312500000001,66.93457784790257L701.465625,63.631887597246816L712.6,66.93457784790257L723.734375,68.03549192143743L734.8687500000001,64.73278434746538L746.0031250000001,65.83368109768395L757.1374999999999,64.73278434746538L768.2718749999999,64.73278434746538L779.40625,65.83368109768395L790.540625,65.83368109768395L801.675,64.73278434746538L812.8093749999999,64.73278434746538L823.94375,63.631887597246816L835.078125,63.631887597246816L846.2125,63.631887597246816L857.3468750000001,64.73278434746538L868.48125,64.73278434746538L879.615625,63.631887597246816L890.75,63.631887597246816L901.8843750000001,65.83368109768395L913.0187500000001,65.83368109768395L924.1531249999999,65.83368109768395L935.2874999999999,65.83368109768395L946.421875,64.73278434746538L957.55625,63.631887597246816L968.690625,63.631887597246816L979.8249999999999,63.631887597246816L990.959375,64.73278434746538L1002.09375,64.73278434746538L1013.228125,64.73278434746538L1024.3625000000002,64.73278434746538L1035.496875,71.33818217209324L1046.63125,71.33818217209324L1057.765625,63.631887597246816L1068.9,66.93457784790257L1080.034375,65.83368109768395L1091.16875,66.93457784790257L1102.303125,69.13638867165605L1113.4375,68.03549192143743L1124.571875,66.93457784790257L1135.70625,64.73278434746538L1146.8406249999998,64.73278434746538L1157.9750000000001,66.93457784790257L1169.109375,65.83368109768395L1180.2437499999999,66.93457784790257L1191.3781250000002,63.631887597246816L1202.5125,64.73278434746538L1213.646875,63.631887597246816" style="fill: none;" fill="none"></path></g><g><path stroke="rgb(0, 119, 187)" stroke-width="2px" d="M111.34375,322.3428750867024L122.47812499999999,322.3428750867024L133.6125,323.44377400233554L144.74687500000002,308.0312043413735L155.88125,279.4078628507156L167.015625,270.60067585647965L178.15,161.61180230659934L189.28437499999998,86.75075399846986L200.41875,85.64985724825124L211.553125,68.03549192143743L222.6875,69.13638867165605L233.82187499999998,73.53997567253043L244.95624999999998,90.05344424912568L256.09062500000005,65.83368109768395L267.225,68.03549192143743L278.359375,64.73278434746538L289.49375000000003,73.53997567253043L300.628125,64.73278434746538L311.7625,72.43907892231181L322.896875,63.631887597246816L334.03125,68.03549192143743L345.16562500000003,63.631887597246816L356.3,63.631887597246816L367.43437500000005,65.83368109768395L378.56874999999997,74.64087242274906L389.703125,63.631887597246816L400.8375,71.33818217209324L411.971875,65.83368109768395L423.10625,66.93457784790257L434.240625,62.53099084702819L445.375,73.53997567253043L456.50937500000003,64.73278434746538L467.64374999999995,64.73278434746538L478.778125,65.83368109768395L489.91249999999997,65.83368109768395L501.046875,63.631887597246816L512.1812500000001,65.83368109768395L523.315625,65.83368109768395L534.45,66.93457784790257L545.584375,66.93457784790257L556.71875,65.83368109768395L567.853125,69.13638867165605L578.9875000000001,64.73278434746538L590.1218749999999,70.23728542187467L601.25625,63.631887597246816L612.390625,64.73278434746538L623.525,61.430094096809626L634.659375,62.53099084702819L645.79375,64.73278434746538L656.9281249999999,63.631887597246816L668.0625,63.631887597246816L679.196875,64.73278434746538L690.3312500000001,64.73278434746538L701.465625,64.73278434746538L712.6,63.631887597246816L723.734375,63.631887597246816L734.8687500000001,63.631887597246816L746.0031250000001,62.53099084702819L757.1374999999999,62.53099084702819L768.2718749999999,64.73278434746538L779.40625,63.631887597246816L790.540625,64.73278434746538L801.675,65.83368109768395L812.8093749999999,65.83368109768395L823.94375,68.03549192143743L835.078125,65.83368109768395L846.2125,68.03549192143743L857.3468750000001,64.73278434746538L868.48125,74.64087242274906L879.615625,74.64087242274906L890.75,65.83368109768395L901.8843750000001,68.03549192143743L913.0187500000001,66.93457784790257L924.1531249999999,63.631887597246816L935.2874999999999,64.73278434746538L946.421875,64.73278434746538L957.55625,63.631887597246816L968.690625,62.53099084702819L979.8249999999999,62.53099084702819L990.959375,62.53099084702819L1002.09375,61.430094096809626L1013.228125,61.430094096809626L1024.3625000000002,61.430094096809626L1035.496875,62.53099084702819L1046.63125,63.631887597246816L1057.765625,63.631887597246816L1068.9,63.631887597246816L1080.034375,62.53099084702819L1091.16875,62.53099084702819L1102.303125,62.53099084702819L1113.4375,62.53099084702819L1124.571875,61.430094096809626L1135.70625,62.53099084702819L1146.8406249999998,62.53099084702819L1157.9750000000001,63.631887597246816L1169.109375,63.631887597246816L1180.2437499999999,64.73278434746538L1191.3781250000002,63.631887597246816L1202.5125,63.631887597246816L1213.646875,63.631887597246816" style="fill: none;" fill="none"></path></g></g></g></g></g></g><g transform="translate(48, 377)" clip-path="url(#clip_1)"><clipPath id="clip_1"><rect width="1336" height="22"></rect></clipPath><g><g><line x1="0" y1="0" x2="0" y2="5" style="visibility: inherit;" fill="rgb(0, 0, 0)" stroke="rgb(204, 204, 204)" stroke-width="1px"></line><line x1="111.34375" y1="0" x2="111.34375" y2="5" style="visibility: inherit;" fill="rgb(0, 0, 0)" stroke="rgb(204, 204, 204)" stroke-width="1px"></line><line x1="222.6875" y1="0" x2="222.6875" y2="5" style="visibility: inherit;" fill="rgb(0, 0, 0)" stroke="rgb(204, 204, 204)" stroke-width="1px"></line><line x1="334.03125" y1="0" x2="334.03125" y2="5" style="visibility: inherit;" fill="rgb(0, 0, 0)" stroke="rgb(204, 204, 204)" stroke-width="1px"></line><line x1="445.375" y1="0" x2="445.375" y2="5" style="visibility: inherit;" fill="rgb(0, 0, 0)" stroke="rgb(204, 204, 204)" stroke-width="1px"></line><line x1="556.71875" y1="0" x2="556.71875" y2="5" style="visibility: inherit;" fill="rgb(0, 0, 0)" stroke="rgb(204, 204, 204)" stroke-width="1px"></line><line x1="668.0625" y1="0" x2="668.0625" y2="5" style="visibility: inherit;" fill="rgb(0, 0, 0)" stroke="rgb(204, 204, 204)" stroke-width="1px"></line><line x1="779.40625" y1="0" x2="779.40625" y2="5" style="visibility: inherit;" fill="rgb(0, 0, 0)" stroke="rgb(204, 204, 204)" stroke-width="1px"></line><line x1="890.75" y1="0" x2="890.75" y2="5" style="visibility: inherit;" fill="rgb(0, 0, 0)" stroke="rgb(204, 204, 204)" stroke-width="1px"></line><line x1="1002.09375" y1="0" x2="1002.09375" y2="5" style="visibility: inherit;" fill="rgb(0, 0, 0)" stroke="rgb(204, 204, 204)" stroke-width="1px"></line><line x1="1113.4375" y1="0" x2="1113.4375" y2="5" style="visibility: inherit;" fill="rgb(0, 0, 0)" stroke="rgb(204, 204, 204)" stroke-width="1px"></line><line x1="1224.78125" y1="0" x2="1224.78125" y2="5" style="visibility: inherit;" fill="rgb(0, 0, 0)" stroke="rgb(204, 204, 204)" stroke-width="1px"></line><line x1="1336.125" y1="0" x2="1336.125" y2="5" style="visibility: inherit;" fill="rgb(0, 0, 0)" stroke="rgb(204, 204, 204)" stroke-width="1px"></line></g><g transform="translate(0, 8)"><text x="0" y="0" dx="0em" dy="0.95em" style="text-anchor: middle; visibility: hidden; font-family: &quot;Helvetica Neue&quot;, sans-serif; font-size: 12px; font-weight: 200;" fill="rgb(50, 49, 63)" stroke="none" stroke-width="1px">-10</text><text x="111.34375" y="0" dx="0em" dy="0.95em" style="text-anchor: middle; visibility: inherit; font-family: &quot;Helvetica Neue&quot;, sans-serif; font-size: 12px; font-weight: 200;" fill="rgb(50, 49, 63)" stroke="none" stroke-width="1px">0</text><text x="222.6875" y="0" dx="0em" dy="0.95em" style="text-anchor: middle; visibility: inherit; font-family: &quot;Helvetica Neue&quot;, sans-serif; font-size: 12px; font-weight: 200;" fill="rgb(50, 49, 63)" stroke="none" stroke-width="1px">10</text><text x="334.03125" y="0" dx="0em" dy="0.95em" style="text-anchor: middle; visibility: inherit; font-family: &quot;Helvetica Neue&quot;, sans-serif; font-size: 12px; font-weight: 200;" fill="rgb(50, 49, 63)" stroke="none" stroke-width="1px">20</text><text x="445.375" y="0" dx="0em" dy="0.95em" style="text-anchor: middle; visibility: inherit; font-family: &quot;Helvetica Neue&quot;, sans-serif; font-size: 12px; font-weight: 200;" fill="rgb(50, 49, 63)" stroke="none" stroke-width="1px">30</text><text x="556.71875" y="0" dx="0em" dy="0.95em" style="text-anchor: middle; visibility: inherit; font-family: &quot;Helvetica Neue&quot;, sans-serif; font-size: 12px; font-weight: 200;" fill="rgb(50, 49, 63)" stroke="none" stroke-width="1px">40</text><text x="668.0625" y="0" dx="0em" dy="0.95em" style="text-anchor: middle; visibility: inherit; font-family: &quot;Helvetica Neue&quot;, sans-serif; font-size: 12px; font-weight: 200;" fill="rgb(50, 49, 63)" stroke="none" stroke-width="1px">50</text><text x="779.40625" y="0" dx="0em" dy="0.95em" style="text-anchor: middle; visibility: inherit; font-family: &quot;Helvetica Neue&quot;, sans-serif; font-size: 12px; font-weight: 200;" fill="rgb(50, 49, 63)" stroke="none" stroke-width="1px">60</text><text x="890.75" y="0" dx="0em" dy="0.95em" style="text-anchor: middle; visibility: inherit; font-family: &quot;Helvetica Neue&quot;, sans-serif; font-size: 12px; font-weight: 200;" fill="rgb(50, 49, 63)" stroke="none" stroke-width="1px">70</text><text x="1002.09375" y="0" dx="0em" dy="0.95em" style="text-anchor: middle; visibility: inherit; font-family: &quot;Helvetica Neue&quot;, sans-serif; font-size: 12px; font-weight: 200;" fill="rgb(50, 49, 63)" stroke="none" stroke-width="1px">80</text><text x="1113.4375" y="0" dx="0em" dy="0.95em" style="text-anchor: middle; visibility: inherit; font-family: &quot;Helvetica Neue&quot;, sans-serif; font-size: 12px; font-weight: 200;" fill="rgb(50, 49, 63)" stroke="none" stroke-width="1px">90</text><text x="1224.78125" y="0" dx="0em" dy="0.95em" style="text-anchor: middle; visibility: inherit; font-family: &quot;Helvetica Neue&quot;, sans-serif; font-size: 12px; font-weight: 200;" fill="rgb(50, 49, 63)" stroke="none" stroke-width="1px">100</text><text x="1336.125" y="0" dx="0em" dy="0.95em" style="text-anchor: middle; visibility: hidden; font-family: &quot;Helvetica Neue&quot;, sans-serif; font-size: 12px; font-weight: 200;" fill="rgb(50, 49, 63)" stroke="none" stroke-width="1px">110</text></g><line x1="0" y1="0" x2="1336.125" y2="0" fill="rgb(0, 0, 0)" stroke="rgb(204, 204, 204)" stroke-width="1px"></line></g></g></g></g></svg>